<svg xmlns="http://www.w3.org/2000/svg" version="1.1" width="512" height="512" id="svg260" sodipodi:docname="slogo512.svg" inkscape:version="1.4.3 (0d15f75, 2025-12-25)" xmlns:inkscape="http://www.inkscape.org/namespaces/inkscape" xmlns:sodipodi="http://sodipodi.sourceforge.net/DTD/sodipodi-0.dtd" xmlns:svg="http://www.w3.org/2000/svg"><metadata><rdf:RDF xmlns:rdf="http://www.w3.org/1999/02/22-rdf-syntax-ns#" xmlns:dc="http://purl.org/dc/elements/1.1/"><rdf:Description><dc:creator>RealFaviconGenerator</dc:creator><dc:source>https://realfavicongenerator.net</dc:source></rdf:Description></rdf:RDF></metadata><defs id="defs260"></defs><sodipodi:namedview id="namedview260" pagecolor="#ffffff" bordercolor="#000000" borderopacity="0.25" inkscape:showpageshadow="2" inkscape:pageopacity="0.0" inkscape:pagecheckerboard="0" inkscape:deskcolor="#d1d1d1" inkscape:zoom="1.0507812" inkscape:cx="643.80669" inkscape:cy="317.3829" inkscape:window-width="1920" inkscape:window-height="1009" inkscape:window-x="1912" inkscape:window-y="-8" inkscape:window-maximized="1" inkscape:current-layer="svg260"></sodipodi:namedview><path d="m 209.37393,148.44979 c 2.29854,3.40988 2.29854,3.40988 3.66327,7.10396 3.622,8.48822 11.35383,13.47713 19.3938,17.47566 0.92297,0.46978 1.84591,0.93955 2.79682,1.42356 12.28453,6.11756 25.00039,11.3394 37.64707,16.67183 115.78592,48.83402 115.78592,48.83402 138.40992,101.81907 1.34322,3.33824 2.60049,6.69881 3.80694,10.08761 0.26296,0.73441 0.52592,1.46884 0.79684,2.22552 6.95682,20.52464 6.55609,46.47589 0.35242,67.10891 -0.39112,1.38607 -0.78223,2.77213 -1.18518,4.20021 -4.94539,16.09414 -12.5646,29.97423 -24.09857,42.40163 -0.97038,1.05199 -1.94072,2.10399 -2.94051,3.18789 -14.64161,15.17424 -35.24518,28.02276 -55.67185,34.32088 -0.75851,-0.37506 -1.51701,-0.75017 -2.2985,-1.13662 0.62665,-0.56702 1.25332,-1.13405 1.89895,-1.71827 19.56554,-18.42429 32.92317,-45.42513 34.11423,-72.34027 0.50918,-29.98426 -8.00877,-57.44359 -27.96836,-80.52315 -1.31554,-1.72305 -1.31554,-1.72305 -2.65767,-3.48092 -4.74779,-5.13241 -10.20287,-9.28638 -15.73052,-13.56853 -1.01629,-0.8088 -2.03256,-1.61755 -3.07965,-2.45085 -16.92122,-13.0848 -36.0295,-22.84291 -55.12838,-32.39894 -25.68057,-12.891 -48.4939,-27.32893 -58.18164,-55.61439 -3.69335,-12.11696 -3.6485,-26.04561 1.2705,-37.78852 1.38784,-2.54322 2.97107,-4.74847 4.79007,-7.00627 z" fill="#174782" id="path2" style="stroke-width:1.14291;fill:#6a5acd;fill-opacity:1"></path><path d="m 184.09019,55.24613 c 1.13775,0.56263 1.13775,0.56263 2.29852,1.13663 -0.53038,0.38974 -1.06075,0.77948 -1.60717,1.18103 -18.56988,14.73618 -31.11532,40.56169 -34.72476,63.54917 -3.53046,32.19175 4.71901,61.06753 24.76748,86.6547 19.31505,23.08254 46.46284,39.50772 73.77439,51.85542 14.9409,6.75812 29.07415,14.15876 41.22359,25.22233 0.81925,0.70621 1.63851,1.41245 2.48259,2.14003 12.43402,11.3259 20.83882,27.43106 21.92574,44.11992 0.19567,10.39919 0.29088,21.00669 -7.33103,29.09505 -0.70517,0.63882 -1.41035,1.27765 -2.1369,1.93584 -0.39109,-0.89232 -0.78222,-1.7846 -1.18517,-2.70395 -13.14161,-28.17202 -55.19421,-37.92082 -82.56862,-49.55812 -12.51173,-5.32129 -24.86935,-10.78253 -36.91866,-17.07239 -1.21629,-0.60658 -2.43259,-1.21315 -3.68573,-1.83813 -28.11128,-14.32967 -55.30514,-34.20988 -71.01628,-61.81315 -1.09554,-1.85052 -1.09554,-1.85052 -2.21322,-3.73845 -6.11299,-11.05594 -8.99607,-22.63847 -11.57792,-34.90698 -0.3511,-1.63952 -0.3511,-1.63952 -0.7093,-3.31221 -3.738576,-29.80621 2.87913,-62.12568 21.79892,-86.18184 3.48752,-4.10031 7.25213,-7.88755 11.0897,-11.666 0.80594,-0.85127 1.61185,-1.70255 2.44217,-2.57962 12.29595,-12.82277 28.61773,-21.42643 44.96488,-28.18043 0.84972,-0.35384 1.69941,-0.70769 2.57489,-1.07225 2.08174,-0.8302 4.20463,-1.55811 6.33189,-2.2666 z" fill="#174781" id="path3" style="stroke-width:1.14291;fill:#6a5acd;fill-opacity:1"></path><path d="m 254.55427,48.000113 c 0.76222,9.95e-4 1.52446,0.002 2.3098,0.003 13.40555,0.05757 25.79101,1.439431 38.70447,4.969737 1.03703,0.27436 2.07406,0.54871 3.14252,0.83138 40.95007,10.99641 77.55345,31.07553 110.63437,57.13674 1.52775,1.14267 3.0582,2.28189 4.59704,3.40989 -1.00673,5.17638 -4.07685,8.24727 -7.54202,12.0767 -1.27488,1.4388 -2.54836,2.87882 -3.82038,4.32008 -0.92974,1.04972 -0.92974,1.04972 -1.87822,2.12064 -2.11824,2.42003 -4.14698,4.90047 -6.15317,7.41196 -4.28066,5.34776 -8.62963,10.63752 -13.00101,15.91281 -0.6835,0.82976 -1.36703,1.65951 -2.07124,2.51444 -3.6461,4.39141 -7.35603,8.54207 -11.5044,12.47489 -1.17036,-0.92164 -2.34074,-1.84324 -3.54657,-2.79275 -11.71951,-9.11411 -23.73652,-17.17114 -36.67759,-24.48639 -0.81166,-0.46299 -1.62332,-0.92599 -2.45958,-1.40302 -12.46005,-7.04012 -25.22368,-12.52354 -38.91385,-16.78304 -0.94183,-0.2936 -1.88369,-0.5872 -2.85406,-0.88966 -12.08155,-3.62092 -23.65955,-5.29562 -36.29266,-5.36181 -1.1609,-0.007 -2.32181,-0.0144 -3.51792,-0.0219 -17.16166,0.28842 -31.86665,5.40641 -44.37843,17.12022 -10.82645,11.63211 -13.51202,23.99335 -13.22997,39.37803 0.006,1.3062 0.0117,2.61242 0.0179,3.9582 0.0557,5.95282 0.31875,11.55891 1.41862,17.42464 -13.08466,-12.01814 -20.67461,-30.98876 -22.07391,-48.4311 -0.11014,-3.041 -0.14042,-6.06794 -0.1212,-9.1108 0.006,-1.08791 0.013,-2.1758 0.0196,-3.29669 0.43766,-25.62641 9.60268,-48.0786 28.18049,-66.19841 17.23346,-16.00101 37.87837,-22.320954 61.01131,-22.28777 z" fill="#174882" id="path5" style="stroke-width:1.14291;fill:#6a5acd;fill-opacity:1"></path><path d="m 327.74787,314.39776 c 12.80651,11.80819 21.1229,31.11545 21.9771,48.30541 0.38464,13.06681 0.57937,25.55254 -3.58892,38.07849 -0.52,1.61539 -0.52,1.61539 -1.05051,3.26338 -7.34148,21.28066 -21.06597,39.06783 -40.83917,50.47346 -25.53497,12.2521 -55.32371,11.46742 -82.23055,4.23128 -1.05427,-0.28037 -2.10852,-0.56078 -3.19472,-0.84968 -15.56379,-4.22776 -30.38132,-9.62249 -45.07428,-16.19977 -0.81961,-0.35858 -1.63925,-0.7172 -2.48371,-1.08667 -18.52835,-8.11536 -36.08351,-18.10524 -52.68083,-29.60232 -0.64389,-0.44377 -1.28776,-0.88755 -1.95115,-1.34475 C 107.83542,403.59128 99.28056,397.30742 91,390.552 c 1.750233,-5.65247 5.13828,-9.26475 9.05044,-13.56853 1.35621,-1.51957 2.71197,-3.03951 4.0673,-4.55984 0.68778,-0.76685 1.37555,-1.53369 2.08416,-2.32378 3.1071,-3.47842 6.16726,-6.99587 9.2199,-10.52104 0.56492,-0.65172 1.1298,-1.30345 1.71183,-1.97493 6.41746,-7.42546 12.8124,-14.89068 18.68756,-22.74677 5.02906,0.57298 8.31279,3.82644 12.06726,6.89082 7.20535,5.72947 14.58082,10.96431 22.41059,15.84178 0.65278,0.40698 1.30556,0.81391 1.9781,1.2332 32.6253,20.20286 74.75081,39.80667 114.27017,31.64223 13.23194,-3.12263 25.44331,-8.86272 33.15572,-20.37248 6.5999,-11.35852 9.57896,-20.97175 9.40957,-34.02788 -7.3e-4,-1.08059 -10e-4,-2.16115 -0.002,-3.27446 -0.0391,-6.22826 -0.44306,-12.23098 -1.36249,-18.39256 z" fill="#164782" id="path4" style="stroke-width:1.14291;fill:#6a5acd;fill-opacity:1"></path></svg>